<svg width="108" height="22" viewBox="0 0 108 22" fill="none" xmlns="http://www.w3.org/2000/svg">
<g clip-path="url(#clip0_51_59205)">
<mask id="mask0_51_59205" style="mask-type:luminance" maskUnits="userSpaceOnUse" x="0" y="0" width="108" height="22">
<path d="M107.125 0.0012207H0.959999V21.8969H107.125V0.0012207Z" fill="white"/>
</mask>
<g mask="url(#mask0_51_59205)">
<path d="M16.4151 6.63895C15.5465 2.09881 11.8432 0.11902 8.09224 0.606597C-2.06071 1.56134 -1.04247 18.0143 9.04926 17.3112C14.839 17.1162 17.3993 11.8413 16.4151 6.63895ZM9.02885 16.3452C5.07606 16.5923 5.45025 10.6779 5.44345 7.99963C5.45479 6.5369 5.47066 5.06056 5.98545 3.64999C6.52292 2.16911 7.28717 1.57268 8.70455 1.56588C10.1491 1.55907 11.054 2.20087 11.5574 3.64999C12.172 5.42114 12.1289 7.27847 12.2174 9.16529C12.0518 11.5782 12.4237 16.2431 9.02885 16.3452Z" fill="#073742"/>
<path d="M68.9442 1.92659C68.942 1.30748 69.1665 0.568172 69.0599 0.0012207L65.2205 0.720115C65.284 1.80639 65.2137 2.90174 65.2794 3.98802C65.3225 4.68877 65.1502 4.78855 64.4608 4.66383C60.9933 4.04018 57.9658 5.9406 57.1176 9.27654C56.1062 13.1908 57.9 18.2548 62.6352 17.2025C63.6058 17.0052 64.4268 16.4723 65.6083 15.6173C64.6876 18.0915 66.6651 17.0506 67.8307 17.0619C68.8535 17.1436 68.9601 16.597 68.9556 15.7511C68.9261 11.1429 68.9578 6.53476 68.9442 1.92659ZM65.2432 14.1795C65.2863 14.912 64.9506 15.1842 64.3338 15.3565C62.5876 15.8418 61.4083 15.2273 60.9661 13.4879C60.4445 11.4355 60.5012 9.37859 61.0976 7.34437C61.3879 6.35561 62.032 5.72289 63.0547 5.51425C64.2499 5.27386 65.225 6.05172 65.2386 7.265C65.25 8.3989 65.2409 9.5328 65.2409 10.6667H65.225C65.225 11.8369 65.1751 13.0116 65.2432 14.1795Z" fill="#073742"/>
<path d="M30.1761 8.53259C29.4663 4.26458 24.9896 3.42096 22.1368 6.04934C21.6174 5.70464 22.0551 5.04017 21.7988 4.74989L18.3427 5.1649C18.277 5.30324 18.2701 5.48239 18.2724 5.67062C18.2769 10.9591 18.2792 16.2499 18.2633 21.5384C18.2633 21.6859 18.2792 21.8038 18.311 21.8968L21.8782 21.23C21.9553 20.8127 21.9599 20.2209 21.9621 19.3886C21.9621 19.1232 21.9984 18.8534 21.9553 18.5971C21.7671 17.4473 22.164 17.1548 23.3523 17.2636C26.568 17.5607 28.9198 16.064 29.8768 13.3403C30.4301 11.7642 30.4505 10.1155 30.1761 8.53259ZM26.1485 14.6421C25.7221 16.1275 24.4023 16.7738 22.9532 16.2658C22.3454 16.0549 21.9122 15.6852 21.9508 14.9414C21.9825 13.7395 21.9372 12.5307 21.9531 11.3243H21.9485C21.9485 10.1563 21.9712 8.98842 21.9372 7.8205C21.919 7.17871 22.1662 6.89524 22.7944 6.73422C24.6291 6.26705 25.856 6.8907 26.2982 8.72989C26.7744 10.7006 26.7086 12.6917 26.1485 14.6421Z" fill="#073742"/>
<path d="M47.8106 4.73634C48.0464 5.04023 47.8219 5.70696 47.9852 6.1832C49.144 5.44163 50.2689 4.84747 51.5388 4.60935C53.8157 4.18073 55.3623 5.36455 55.3964 7.66864C55.4395 10.5397 55.3986 13.4084 55.3918 16.2795C55.3918 16.4314 55.444 16.6718 55.3714 16.7194C54.3872 17.3658 53.2873 16.9031 52.2419 16.9984C51.5751 17.0596 51.7339 16.4859 51.7316 16.1049C51.7248 13.7259 51.7384 11.3447 51.7271 8.9658C51.7203 6.92251 50.067 6.00858 48.2573 7.00868C47.7902 7.26495 47.9444 7.65503 47.9421 7.99293C47.9217 10.712 47.9013 13.4334 47.9421 16.1525C47.9534 16.8578 47.7539 17.0324 47.0577 17.0369C44.3091 17.0528 44.3091 17.08 44.3091 14.3654C44.3091 11.6509 44.3522 8.7753 44.2864 5.98137C44.2751 5.58677 44.3431 5.3169 44.4882 5.13548L47.8106 4.73634Z" fill="#073742"/>
<path d="M76.6071 4.55502C68.3886 4.51646 68.248 17.5019 76.6978 17.3228C80.5327 17.3023 82.8935 14.8259 82.8889 10.8255C82.8844 6.99744 80.4352 4.55048 76.6071 4.55502ZM78.5733 15.0731C78.249 15.9689 77.6821 16.3952 76.7069 16.3839C75.7544 16.3725 75.0809 16.0188 74.8314 15.0844C74.1103 12.3789 74.0558 9.65304 74.7566 6.93848C74.9947 6.01322 75.6592 5.46214 76.6616 5.46667C79.2695 5.47348 78.9838 9.23123 79.0246 11.0523C79.0337 12.4107 79.0473 13.7646 78.5733 15.0731Z" fill="#073742"/>
<path d="M90.3863 4.55501C86.6852 4.53914 84.2179 7.09495 84.1975 10.957C84.1793 14.8463 86.5877 17.3205 90.3908 17.3159C98.7953 17.4679 98.8225 4.41894 90.3863 4.55501ZM92.2709 15.1298C92.0214 16.0029 91.3592 16.4315 90.3795 16.3998C89.4157 16.368 88.8283 15.953 88.529 15.0572C88.0709 13.6807 88.0323 12.2565 88.0731 10.9207C88.0459 9.47161 88.0505 8.12227 88.5176 6.81828C88.8374 5.9293 89.4474 5.47347 90.3795 5.4644C91.3161 5.45533 92.0032 5.91116 92.2595 6.7956C93.0578 9.56686 93.06 12.3608 92.2709 15.1298Z" fill="#073742"/>
<path d="M36.0225 10.4217C37.0408 10.4467 38.0613 10.4285 39.0795 10.4285C40.0978 10.4285 41.1931 10.4081 42.2499 10.4353C42.8055 10.4512 42.9552 10.2358 42.9257 9.6983C42.6853 5.49153 38.8709 3.31217 35.0678 5.17857C31.6887 6.8386 30.8701 11.1066 32.4167 14.3995C33.8704 17.4995 38.2835 18.325 41.4267 16.1502C41.8236 15.8781 42.5923 15.649 42.3406 15.0639C42.0345 14.3518 41.3927 14.9709 40.9595 15.0866C37.5487 16.0096 35.544 14.6036 35.3671 11.152C35.3376 10.5895 35.476 10.4081 36.0225 10.4217ZM35.4601 8.21516C35.5463 6.93158 36.3264 5.12641 37.8912 5.48245C39.2927 5.78407 39.0818 7.41916 39.2791 8.51224C39.3653 9.06785 39.2156 9.34679 38.5874 9.34452C37.9501 9.34452 37.3152 9.44884 36.8956 9.4874C35.3308 9.58264 35.3263 9.58038 35.4601 8.21516Z" fill="#073742"/>
<path d="M98.4053 5.10838C98.2715 5.26259 98.1989 5.50071 98.2216 5.86355C98.2805 7.55987 98.242 9.25846 98.242 10.957H98.2329V14.4653C98.2329 15.7013 98.2352 16.3363 98.5232 16.6651H101.823C101.9 16.5041 101.929 16.2818 101.923 15.9802C101.866 13.3405 101.916 10.6985 101.884 8.05879C101.877 7.44421 102.054 7.05415 102.639 6.84551C103.215 6.63914 103.567 6.86819 103.846 7.35804C104.419 8.43524 106.17 8.43978 106.785 7.38298C107.796 5.88396 106.397 4.16724 104.728 4.59585C103.828 4.77728 103.061 5.26485 102.369 5.87489C102.14 6.07673 101.657 6.46906 101.766 5.73882C101.848 5.19455 101.789 4.88386 101.626 4.72512L98.4053 5.10838Z" fill="#073742"/>
</g>
</g>
<defs>
<clipPath id="clip0_51_59205">
<rect width="106.36" height="21.9977" fill="white" transform="translate(0.959999 0.0012207)"/>
</clipPath>
</defs>
</svg>
