<svg width="73" height="22" viewBox="0 0 73 22" fill="none" xmlns="http://www.w3.org/2000/svg">
<g clip-path="url(#clip0_51_59229)">
<mask id="mask0_51_59229" style="mask-type:luminance" maskUnits="userSpaceOnUse" x="0" y="0" width="73" height="22">
<path d="M72.1842 0.000732422H0.660004V21.9645H72.1842V0.000732422Z" fill="white"/>
</mask>
<g mask="url(#mask0_51_59229)">
<path d="M39.0576 6.59454C38.6668 6.39192 38.1979 6.26311 37.758 6.24285C36.3859 6.18062 35.1833 6.73057 34.011 7.37316C33.7345 7.52512 33.3959 7.63077 33.0818 7.63946C31.0108 7.69879 29.2436 8.44414 27.7645 9.88273C27.6213 10.0231 27.4707 10.1563 27.245 10.3647C27.3202 9.77565 27.4649 9.2966 27.4085 8.84071C27.3694 8.51507 27.1263 8.08813 26.8528 7.95932C26.6226 7.84933 26.1638 8.02877 25.9077 8.21547C25.6313 8.41809 25.4648 8.77412 25.2636 9.07081C23.8424 11.1621 22.249 13.1116 20.3473 14.7875C19.7626 15.3042 19.0635 15.7066 18.3804 16.0973C18.0258 16.3014 17.5974 16.3448 17.308 15.8484C17.431 15.7456 17.5323 15.6472 17.6467 15.5705C19.5976 14.2419 21.0781 12.4893 22.1462 10.4168C22.5312 9.67289 22.783 8.80308 22.8539 7.96945C22.9509 6.81597 21.9928 6.04456 20.8683 6.34559C20.2257 6.51782 19.5469 6.87242 19.0867 7.34133C17.1575 9.30383 16.1096 11.7121 15.716 14.4214C15.6784 14.6819 15.5192 15.0567 15.318 15.1407C14.4959 15.4793 13.6363 15.5778 12.8287 15.0582C12.3858 14.7731 11.9401 14.6848 11.6506 15.1957C11.3611 15.708 11.7027 16.0452 12.134 16.3014C13.1804 16.9208 14.289 16.9121 15.4135 16.5995C15.771 16.4997 15.9997 16.4722 16.2529 16.8383C16.7378 17.5374 17.4976 17.808 18.2892 17.5721C19.0114 17.3565 19.7336 17.0236 20.3473 16.5909C22.2533 15.2478 23.7064 13.4488 25.1508 11.6498C25.2593 11.5153 25.3809 11.3893 25.6298 11.1071C25.5661 11.4226 25.5444 11.5355 25.5198 11.647C25.1406 13.3533 24.7629 15.0596 24.3765 16.7645C24.2679 17.2436 24.3302 17.6691 24.8599 17.7964C25.4417 17.9383 25.6703 17.5504 25.7687 17.0424C25.8368 16.6893 25.9207 16.339 26.0162 15.9931C26.6168 13.8034 27.5547 11.8076 29.3898 10.3531C30.1598 9.74379 31.0195 9.30528 32.0861 9.19095C31.9095 10.1563 32.4754 10.5572 33.1933 10.851C33.8822 11.1317 34.587 11.3807 35.2527 11.7077C35.8201 11.9885 36.1761 12.4488 36.1558 13.1406C36.1037 14.9135 34.2744 16.957 32.5058 17.1944C31.3393 17.3507 30.6403 16.7906 30.7749 15.6168C30.8762 14.7311 31.2076 13.8642 31.4913 13.0074C31.6418 12.5544 31.636 12.1911 31.1902 11.9683C30.7199 11.7324 30.3523 11.9726 30.2177 12.4039C29.8891 13.4459 29.4564 14.4966 29.3739 15.5662C29.206 17.7617 30.866 19.0396 33.0312 18.5288C35.1065 18.0381 36.3932 16.6705 37.1819 14.7716C38.0735 12.6268 37.454 11.0869 35.3265 10.1563C34.7881 9.92036 34.2338 9.72208 33.6665 9.4992C34.7925 8.20534 37.1009 7.35434 38.2341 7.83339C37.9736 8.13298 37.7247 8.41519 37.4815 8.70175C37.1935 9.04331 37.1544 9.41092 37.4902 9.72642C37.8303 10.0463 38.2138 9.99127 38.5076 9.65551C38.8839 9.22567 39.2776 8.7915 39.5569 8.29798C39.9535 7.59895 39.7653 6.96504 39.0576 6.59454ZM19.9536 8.4673C20.2923 8.11127 20.8726 7.98246 21.3415 7.748C21.2865 8.24152 21.3502 8.78716 21.1563 9.217C20.2894 11.1433 19.0013 12.7585 17.2689 14.0118C17.6655 11.9104 18.4817 10.0144 19.9536 8.4673Z" fill="#073742"/>
<path d="M59.2774 16.8397C58.1196 16.1349 58.2253 15.0624 58.4453 14.0276C58.6927 12.8611 59.1052 11.7308 59.4395 10.5817C59.6074 10.0085 60.0778 9.33556 59.3411 8.90428C58.6146 8.48023 58.2123 9.17492 57.8128 9.62647C56.6868 10.9044 55.6014 12.2185 54.4638 13.4863C53.9906 14.0117 53.4276 14.456 52.9051 14.938C52.8212 14.8945 52.7372 14.8511 52.6533 14.8077C52.8414 14.0233 52.9992 13.2302 53.2206 12.4559C53.636 11.0057 54.1194 9.57436 54.4986 8.11551C54.5854 7.78264 54.487 7.18636 54.2612 7.04308C53.979 6.86362 53.3986 6.89257 53.0875 7.07203C52.5824 7.36293 52.0975 7.78698 51.769 8.26603C50.7791 9.70751 49.8687 11.2025 48.9266 12.6759C48.8383 12.8148 48.7427 12.9494 48.6501 13.0854C48.9584 11.4095 49.4128 9.80014 49.8818 8.19656C50.0192 7.7262 50.0815 7.28188 49.5908 6.98954C49.1248 6.71021 48.7587 6.98375 48.4359 7.28912C48.0177 7.68567 47.6501 8.13867 47.2086 8.50483C46.4488 9.13295 45.647 9.7133 44.8395 10.3327C44.6021 9.76685 44.5109 9.31385 44.2519 8.99256C44.0044 8.68429 43.5224 8.26024 43.2503 8.32681C42.3994 8.53377 41.3443 8.7335 40.832 9.32977C39.8985 10.4181 39.1879 11.7424 38.6003 13.0637C38.2703 13.8047 38.2384 14.7498 38.3123 15.5805C38.4107 16.679 39.3746 17.3621 40.4412 17.0727C41.1894 16.8686 41.955 16.4359 42.5195 15.9033C43.5413 14.9394 44.1882 13.6919 44.6021 12.3401C44.6614 12.1462 44.7381 11.8958 44.8887 11.8003C45.8511 11.191 46.8352 10.6178 47.8179 10.0288C47.5589 11.136 47.2622 12.2648 47.0393 13.4067C46.8989 14.1318 46.8092 14.8772 46.8179 15.6124C46.8208 15.8989 47.1059 16.3505 47.3548 16.4243C47.6457 16.5111 48.1045 16.3534 48.3636 16.1464C48.6877 15.8859 48.9063 15.4807 49.1306 15.1145C50.1524 13.4357 51.1597 11.7482 52.1771 10.0664C52.2625 9.9246 52.3855 9.80303 52.4897 9.67133C52.5129 9.95355 52.4232 10.1706 52.3682 10.3964C52.0092 11.8582 51.6228 13.3141 51.3218 14.7889C51.2002 15.3808 51.2972 16.0263 51.9253 16.3592C52.5274 16.679 53.1396 16.4779 53.6128 16.09C54.4465 15.4083 55.228 14.6615 56.0037 13.9162C56.4176 13.5182 56.778 13.0637 57.1601 12.6353C57.0834 13.6108 56.9372 14.5371 56.9546 15.459C56.9748 16.5227 57.4249 17.4345 58.4496 17.8918C58.6927 18.0004 59.1761 17.8817 59.3672 17.6878C59.5018 17.5517 59.4381 16.9366 59.2774 16.8397ZM40.9318 15.4213C40.6597 15.6095 40.1619 15.7108 39.8941 15.5849C39.6958 15.4923 39.5641 14.9278 39.6437 14.6398C39.9202 13.6383 40.3008 12.6643 40.6178 11.7511C41.573 12.0101 42.298 12.2084 43.0883 12.424C42.5861 13.5442 42.0173 14.676 40.9318 15.4213ZM42.12 10.7872C42.0882 10.7177 42.0549 10.6468 42.0231 10.5759C42.3444 10.2951 42.6656 10.0129 43.1129 9.62357C43.2214 10.1099 43.2909 10.4167 43.3734 10.7872H42.12Z" fill="#073742"/>
<path d="M70.2796 20.6604H2.29251V21.9644H70.2796V20.6604Z" fill="#073742"/>
<path d="M21.1997 3.33807C20.7713 4.20065 20.149 5.00678 19.4688 5.69713C17.156 8.04316 14.3874 9.78857 11.5362 11.4008C11.0558 11.6729 10.7952 12.0029 10.6606 12.5311C10.2409 14.1781 9.76334 15.8107 9.32916 17.4548C9.19456 17.9642 9.01365 18.4288 8.38264 18.258C7.75742 18.0872 7.81965 17.5821 7.95714 17.0799C8.34791 15.6558 8.72854 14.2274 9.13957 12.7019C8.44632 12.9523 7.89057 13.1853 7.31455 13.3489C7.0005 13.4386 6.59526 13.5312 6.3362 13.4053C6.05398 13.2693 5.77176 12.8973 5.73269 12.5977C5.71098 12.4356 6.17121 12.1404 6.46066 12.0217C7.47231 11.6107 8.51434 11.2735 9.51875 10.848C9.69676 10.7727 9.78794 10.4196 9.85886 10.1779C10.3987 8.3138 10.9284 6.44681 11.4523 4.57983C11.5898 4.09065 11.8141 3.68976 12.3959 3.84607C12.9864 4.00671 12.9575 4.47852 12.8214 4.95757C12.3757 6.51773 11.9314 8.07934 11.4277 9.84067C11.9154 9.55266 12.2541 9.36307 12.5826 9.15756C14.7449 7.80146 16.868 6.38892 18.638 4.53207C19.1286 4.01684 19.557 3.42057 19.9029 2.79969C20.2778 2.13105 20.0288 1.60424 19.2618 1.47109C18.612 1.3582 17.9144 1.34083 17.2617 1.4407C14.5914 1.84593 12.0949 2.82574 9.759 4.12105C7.72992 5.24847 5.79637 6.56115 3.8961 7.89843C3.16088 8.4151 2.63263 9.22124 1.94807 9.96369C2.32725 10.1214 2.55158 10.1489 2.65868 10.2748C2.81498 10.4601 3.01037 10.7467 2.96261 10.9334C2.90471 11.1606 2.64421 11.4399 2.41698 11.505C1.40245 11.7974 0.392251 10.848 0.723676 9.85514C0.950898 9.17058 1.30114 8.42379 1.82505 7.96356C3.27956 6.68706 4.77025 5.41346 6.39988 4.37866C9.47533 2.42484 12.7722 0.886391 16.3803 0.177228C17.3977 -0.0224959 18.4991 -0.0572304 19.5223 0.0961805C21.1852 0.346558 21.9465 1.83291 21.1997 3.33807Z" fill="#073742"/>
<path d="M71.928 7.51199C71.2768 7.02571 70.9323 7.58725 70.5531 7.96933C69.6544 8.87242 68.7079 9.70316 67.5037 10.1779C67.3026 9.4412 67.2128 8.76098 66.9219 8.18063C66.7468 7.83039 66.1954 7.35858 65.9262 7.42081C65.052 7.62488 63.9434 7.8217 63.4485 8.43824C62.4151 9.72776 61.6104 11.2344 60.923 12.7482C60.5916 13.4776 60.6089 14.4386 60.7015 15.2679C60.8101 16.2448 61.6857 16.8628 62.6409 16.6341C63.3761 16.459 64.2126 16.1189 64.6888 15.5762C65.5441 14.5993 66.1592 13.414 66.8872 12.3227C67.0348 12.1013 67.1969 11.7945 67.414 11.7264C69.0798 11.2083 70.3766 10.1619 71.5706 8.95781C72.2464 8.27615 72.3608 7.83473 71.928 7.51199ZM63.7727 14.5486C63.5903 14.7845 63.3066 14.964 63.036 15.1073C62.3529 15.4691 61.9607 15.239 61.9882 14.4719C62.0388 13.1433 62.6655 12.0275 63.2893 10.9825C64.039 11.3357 64.7221 11.6584 65.5817 12.0637C64.9724 12.9089 64.3935 13.7439 63.7727 14.5486ZM64.3631 10.0592C64.8451 9.55409 65.1968 9.18359 65.5485 8.81453C65.6353 8.84058 65.7221 8.86664 65.809 8.89124C65.8582 9.392 65.9074 9.89275 65.9725 10.5614C65.4023 10.3834 64.9913 10.2546 64.3631 10.0592Z" fill="#073742"/>
<path d="M62.0258 4.59148C62.0243 5.28617 61.5381 5.83035 60.9099 5.83758C60.3209 5.84627 59.8549 5.34985 59.8563 4.71595C59.8563 4.0502 60.3802 3.47708 60.9924 3.46985C61.6003 3.46116 62.0258 3.92429 62.0258 4.59148Z" fill="#073742"/>
</g>
</g>
<defs>
<clipPath id="clip0_51_59229">
<rect width="71.64" height="21.9985" fill="white" transform="translate(0.660004 0.000732422)"/>
</clipPath>
</defs>
</svg>
