<svg width="59" height="22" viewBox="0 0 59 22" fill="none" xmlns="http://www.w3.org/2000/svg">
<path d="M5.12618 15.3276C5.3611 15.9511 5.68636 16.4841 6.10197 16.9268C6.51762 17.3695 7.01 17.7083 7.57917 17.9433C8.14842 18.1782 8.76731 18.2956 9.4359 18.2956C10.0865 18.2956 10.6963 18.1737 11.2655 17.9297C11.8347 17.6857 12.3316 17.3424 12.7563 16.8997C13.1809 16.4569 13.5107 15.9285 13.7456 15.314C13.9806 14.6997 14.098 14.0131 14.098 13.2541V1.54468H16.944V20.5182H14.1251V18.7564C13.4926 19.4249 12.7472 19.9399 11.8889 20.3014C11.0305 20.6627 10.1045 20.8435 9.11067 20.8435C8.09868 20.8435 7.15457 20.6672 6.27811 20.3149C5.40177 19.9625 4.64276 19.4611 4.00133 18.8106C3.35989 18.16 2.85388 17.3786 2.48347 16.466C2.113 15.5535 1.9278 14.5371 1.9278 13.4167V1.54468H4.77382V13.2541C4.77382 14.0131 4.89126 14.7042 5.12618 15.3276Z" fill="#073742"/>
<path d="M21.8463 1.54468V8.45644C22.4788 7.82401 23.2106 7.3226 24.0418 6.95214C24.873 6.58169 25.7766 6.39648 26.7523 6.39648C27.7643 6.39648 28.7128 6.58616 29.5983 6.96565C30.4837 7.3451 31.2517 7.86013 31.9022 8.51066C32.5528 9.16123 33.0678 9.92916 33.4472 10.8146C33.8267 11.7001 34.0164 12.6397 34.0164 13.6335C34.0164 14.6274 33.8267 15.5625 33.4472 16.4388C33.0678 17.3153 32.5528 18.0788 31.9022 18.7292C31.2517 19.3797 30.4837 19.8948 29.5983 20.2742C28.7128 20.6537 27.7642 20.8434 26.7523 20.8434C25.7765 20.8434 24.8685 20.6582 24.0283 20.2877C23.188 19.9173 22.4516 19.4159 21.8192 18.7834V20.5182H19.1087V1.54468H21.8463ZM22.158 15.5038C22.4019 16.0821 22.7408 16.588 23.1745 17.0217C23.6081 17.4554 24.1141 17.7987 24.6923 18.0517C25.2706 18.3047 25.894 18.4312 26.5626 18.4312C27.2132 18.4312 27.8275 18.3047 28.4057 18.0517C28.9839 17.7987 29.4853 17.4554 29.9101 17.0217C30.3347 16.588 30.6735 16.0821 30.9265 15.5038C31.1795 14.9255 31.306 14.3022 31.306 13.6335C31.306 12.9649 31.1795 12.337 30.9265 11.7497C30.6735 11.1624 30.3347 10.652 29.9101 10.2183C29.4854 9.78466 28.984 9.44581 28.4057 9.2019C27.8274 8.95796 27.2131 8.83592 26.5626 8.83592C25.9121 8.83592 25.2977 8.95792 24.7195 9.2019C24.1413 9.44585 23.6353 9.78466 23.2016 10.2183C22.7679 10.652 22.4246 11.1624 22.1716 11.7497C21.9186 12.337 21.7921 12.9649 21.7921 13.6335C21.7921 14.3022 21.9141 14.9255 22.158 15.5038Z" fill="#073742"/>
<path d="M35.5693 10.8419C35.9307 9.97449 36.4277 9.21108 37.0601 8.55152C37.6925 7.89196 38.4424 7.37245 39.3098 6.993C40.1772 6.61351 41.117 6.42383 42.1289 6.42383C43.1227 6.42383 44.0443 6.60452 44.8934 6.96587C45.7428 7.3273 46.4745 7.82874 47.0889 8.47024C47.7033 9.1117 48.1823 9.87068 48.5254 10.7471C48.8688 11.6235 49.0406 12.5766 49.0406 13.6067V14.5012H37.7919C37.8823 15.0613 38.063 15.5808 38.3341 16.0596C38.6051 16.5385 38.9439 16.9541 39.3505 17.3065C39.757 17.6589 40.2178 17.9345 40.733 18.1332C41.2478 18.3319 41.7943 18.4314 42.3728 18.4314C44.0173 18.4314 45.3453 17.7537 46.3572 16.3984L48.3359 17.8621C47.6493 18.7837 46.7999 19.5065 45.7879 20.0305C44.776 20.5545 43.6375 20.8165 42.3728 20.8165C41.3428 20.8165 40.3806 20.6358 39.486 20.2744C38.5916 19.913 37.8146 19.4071 37.1551 18.7565C36.4955 18.106 35.976 17.3425 35.5965 16.4662C35.2171 15.5898 35.0273 14.6365 35.0273 13.6065C35.0272 12.6308 35.208 11.7092 35.5693 10.8419ZM39.3776 9.77118C38.6096 10.4127 38.0991 11.2665 37.8462 12.3326H46.2758C46.0411 11.2665 45.5394 10.4127 44.7714 9.77118C44.0034 9.12976 43.1046 8.80901 42.0745 8.80901C41.0444 8.80901 40.1456 9.12976 39.3776 9.77118Z" fill="#073742"/>
<path d="M54.1585 10.083C53.58 10.7154 53.2909 11.5738 53.2909 12.658V20.5185H50.5535V6.69491H53.2639V8.40255C53.607 7.84237 54.0543 7.39963 54.6054 7.07436C55.1565 6.74906 55.8118 6.58643 56.5706 6.58643H57.5192V9.13432H56.3811C55.4776 9.13436 54.7366 9.45055 54.1585 10.083Z" fill="#073742"/>
</svg>
